<svg width="60" height="60" viewBox="0 0 60 60" fill="none" xmlns="http://www.w3.org/2000/svg">
<circle cx="30" cy="30" r="29" stroke="#234CAD" stroke-width="2"/>
<path d="M22.3333 23.3333C22.3333 23.8856 22.781 24.3333 23.3333 24.3333C23.8856 24.3333 24.3333 23.8856 24.3333 23.3333H22.3333ZM24.3333 20C24.3333 19.4477 23.8856 19 23.3333 19C22.781 19 22.3333 19.4477 22.3333 20H24.3333ZM26.7778 23.3333C26.7778 23.8856 27.2255 24.3333 27.7778 24.3333C28.3301 24.3333 28.7778 23.8856 28.7778 23.3333H26.7778ZM28.7778 20C28.7778 19.4477 28.3301 19 27.7778 19C27.2255 19 26.7778 19.4477 26.7778 20H28.7778ZM31.2222 23.3333C31.2222 23.8856 31.6699 24.3333 32.2222 24.3333C32.7745 24.3333 33.2222 23.8856 33.2222 23.3333H31.2222ZM33.2222 20C33.2222 19.4477 32.7745 19 32.2222 19C31.6699 19 31.2222 19.4477 31.2222 20H33.2222ZM35.6667 23.3333C35.6667 23.8856 36.1144 24.3333 36.6667 24.3333C37.219 24.3333 37.6667 23.8856 37.6667 23.3333H35.6667ZM37.6667 20C37.6667 19.4477 37.219 19 36.6667 19C36.1144 19 35.6667 19.4477 35.6667 20H37.6667ZM40 28.7778C40.5523 28.7778 41 28.3301 41 27.7778C41 27.2255 40.5523 26.7778 40 26.7778V28.7778ZM20 26.7778C19.4477 26.7778 19 27.2255 19 27.7778C19 28.3301 19.4477 28.7778 20 28.7778V26.7778ZM24.3333 23.3333V20H22.3333V23.3333H24.3333ZM28.7778 23.3333V20H26.7778V23.3333H28.7778ZM33.2222 23.3333V20H31.2222V23.3333H33.2222ZM37.6667 23.3333V20H35.6667V23.3333H37.6667ZM40 26.7778H20V28.7778H40V26.7778ZM22.2222 41H37.7778V39H22.2222V41ZM37.7778 41C39.5574 41 41 39.5574 41 37.7778H39C39 38.4528 38.4528 39 37.7778 39V41ZM41 37.7778V24.4444H39V37.7778H41ZM41 24.4444C41 22.6649 39.5574 21.2222 37.7778 21.2222V23.2222C38.4528 23.2222 39 23.7694 39 24.4444H41ZM37.7778 21.2222H22.2222V23.2222H37.7778V21.2222ZM22.2222 21.2222C20.4426 21.2222 19 22.6649 19 24.4444H21C21 23.7694 21.5472 23.2222 22.2222 23.2222V21.2222ZM19 24.4444V37.7778H21V24.4444H19ZM19 37.7778C19 39.5574 20.4426 41 22.2222 41V39C21.5472 39 21 38.4528 21 37.7778H19Z" fill="#234CAD"/>
</svg>
