<svg width="13" height="9" viewBox="0 0 13 9" fill="none" xmlns="http://www.w3.org/2000/svg">
<path d="M1.63 8.06C1.11667 8.08 0.86 7.90333 0.86 7.53C0.86 7.37 0.903333 7.25 0.99 7.17C1.07 7.08333 1.2 7.03333 1.38 7.02L1.7 7C1.97333 6.98667 2.18 6.9 2.32 6.74C2.46 6.58 2.53 6.33667 2.53 6.01V1.54C2.53 1.34667 2.58667 1.19333 2.7 1.08C2.82 0.96 2.97667 0.9 3.17 0.9C3.37 0.9 3.52667 0.96 3.64 1.08C3.76 1.19333 3.82 1.34667 3.82 1.54V6.01C3.82 7.27 3.19667 7.94667 1.95 8.04L1.63 8.06ZM11.604 0.9C11.7907 0.9 11.9407 0.96 12.054 1.08C12.1673 1.19333 12.224 1.34667 12.224 1.54V7.46C12.224 7.64667 12.1707 7.79333 12.064 7.9C11.9573 8.00667 11.8173 8.06 11.644 8.06C11.4707 8.06 11.334 8.00667 11.234 7.9C11.134 7.79333 11.084 7.64667 11.084 7.46V3.34L9.38398 6.56C9.30398 6.70667 9.21732 6.81667 9.12398 6.89C9.03065 6.95667 8.92065 6.99 8.79398 6.99C8.66732 6.99 8.55732 6.95667 8.46398 6.89C8.37065 6.82333 8.28398 6.71333 8.20398 6.56L6.49398 3.39V7.46C6.49398 7.64 6.44065 7.78667 6.33398 7.9C6.23398 8.00667 6.09732 8.06 5.92398 8.06C5.75065 8.06 5.61398 8.00667 5.51398 7.9C5.41398 7.79333 5.36398 7.64667 5.36398 7.46V1.54C5.36398 1.34667 5.41732 1.19333 5.52398 1.08C5.63732 0.96 5.78732 0.9 5.97398 0.9C6.23398 0.9 6.43732 1.04333 6.58398 1.33L8.80398 5.56L11.014 1.33C11.1607 1.04333 11.3573 0.9 11.604 0.9Z" fill="#234CAD"/>
</svg>
