<svg width="17" height="20" viewBox="0 0 17 20" fill="none" xmlns="http://www.w3.org/2000/svg">
<path fill-rule="evenodd" clip-rule="evenodd" d="M3.71875 2.15209H13.2812C14.1614 2.15209 14.875 2.87472 14.875 3.76615V17.3978L9.36181 13.8084H9.36179C8.83681 13.4667 8.16319 13.4667 7.63821 13.8084L2.125 17.3978V3.76615C2.125 2.87472 2.83854 2.15209 3.71875 2.15209ZM0 3.76615C0 1.68616 1.66494 0 3.71875 0H13.2812C15.3351 0 17 1.68616 17 3.76615V18.3833C17 19.6603 15.605 20.4316 14.5445 19.741L14.5445 19.7409L14.5445 19.741L15.4064 18.3833L15.6937 17.9307L14.875 17.3978V18.3833C14.875 17.9577 15.34 17.7006 15.6936 17.9308L15.4063 18.3833L14.5445 19.7409L8.50001 15.8058L8.78721 15.6188C8.61293 15.7323 8.38946 15.7327 8.2148 15.6201L8.50001 15.8058L2.45559 19.741C1.39492 20.4316 0 19.6603 0 18.3833V3.76615ZM2.125 17.3978L1.30647 17.9308C1.66003 17.7006 2.125 17.9577 2.125 18.3833V17.3978Z" fill="#234CAD"/>
</svg>
